# xmcd
#
# Track frame offsets: 
#        150
#        11037
#        21952
#        33672
#        44735
#        56287
#        67632
#        79035
#        92035
#        104060
#        116337
#        128357
#        143052
#        156440
#        168902
#        182672
#        195747
#        209180
#
# Disc length: 2940 seconds
#
# Revision: 0
# Processed by: cddbd v1.5.2PL0 Copyright (c) Steve Scherf et al.
# Submitted via: ExactAudioCopy v0.95a5
#
DISCID=f70b7a12
DTITLE=Johnny "Guitar" Watson - Space Guitar-The Essential Early Maste
DTITLE=rs
DYEAR=2004
DGENRE=Blues
TTITLE0=Highway 60
TTITLE1=No, I Can't
TTITLE2=Motor Head Baby
TTITLE3=I Got Eyes
TTITLE4=Walkin' to My Baby
TTITLE5=What's Goin' On
TTITLE6=Thinking
TTITLE7=Half Pint of Whiskey
TTITLE8=Space Guitar
TTITLE9=Gettin' Drunk
TTITLE10=You Can't Take It With You
TTITLE11=Cuttin' In
TTITLE12=Broke and Lonely
TTITLE13=I Just Wants Me Some Love
TTITLE14=Sweet Lovin' Mama
TTITLE15=Gangster of Love
TTITLE16=In the Evenin'
TTITLE17=Space Guitar [Alternate Version]
EXTD=
EXTT0=
EXTT1=
EXTT2=
EXTT3=
EXTT4=
EXTT5=
EXTT6=
EXTT7=
EXTT8=
EXTT9=
EXTT10=
EXTT11=
EXTT12=
EXTT13=
EXTT14=
EXTT15=
EXTT16=
EXTT17=
PLAYORDER=
